inDegrees=no
num_controls=7
num_derivatives=13
num_iterations=170
num_multipliers=7
num_parameters=0
num_slacks=7
num_states=26
objective=4.880082
objective_accelerations=0.576016
objective_balance=0.042598
objective_effort=0.473670
objective_height=3.718882
objective_ligament=0.068915
solver_duration=2076.546652
status=Solve_Succeeded
success=true
DataType=double
version=3
OpenSimVersion=4.4-2022-07-23-0e9fedc
endheader
time	/jointset/ground_pelvis/pelvis_tilt/value	/jointset/ground_pelvis/pelvis_tx/value	/jointset/ground_pelvis/pelvis_ty/value	/jointset/hip_l/hip_flexion_l/value	/jointset/hip_l/hip_adduction_l/value	/jointset/hip_l/hip_rotation_l/value	/jointset/back/lumbar_extension/value	/jointset/patellofemoral_l/patellar_flexion_l/value	/jointset/knee_l/knee_flexion_l/value	/jointset/knee_l/knee_adduction_l/value	/jointset/knee_l/knee_rotation_l/value	/jointset/ankle_l/ankle_angle_l/value	/jointset/subtalar_l/subtalar_angle_l/value	/jointset/ground_pelvis/pelvis_tilt/speed	/jointset/ground_pelvis/pelvis_tx/speed	/jointset/ground_pelvis/pelvis_ty/speed	/jointset/hip_l/hip_flexion_l/speed	/jointset/hip_l/hip_adduction_l/speed	/jointset/hip_l/hip_rotation_l/speed	/jointset/back/lumbar_extension/speed	/jointset/patellofemoral_l/patellar_flexion_l/speed	/jointset/knee_l/knee_flexion_l/speed	/jointset/knee_l/knee_adduction_l/speed	/jointset/knee_l/knee_rotation_l/speed	/jointset/ankle_l/ankle_angle_l/speed	/jointset/subtalar_l/subtalar_angle_l/speed	/forceset/tau_hip_flexion_l	/forceset/tau_hip_adduction_l	/forceset/tau_hip_rotation_l	/forceset/tau_knee_flexion_l	/forceset/tau_ankle_angle_l	/forceset/tau_subtalar_angle_l	/forceset/tau_lumbar_extension	lambda_cid13_p0	lambda_cid13_p1	lambda_cid13_p2	lambda_cid13_p3	lambda_cid13_p4	lambda_cid13_p5	lambda_cid14_p0	/jointset/ground_pelvis/pelvis_tilt/accel	/jointset/ground_pelvis/pelvis_tx/accel	/jointset/ground_pelvis/pelvis_ty/accel	/jointset/hip_l/hip_flexion_l/accel	/jointset/hip_l/hip_adduction_l/accel	/jointset/hip_l/hip_rotation_l/accel	/jointset/back/lumbar_extension/accel	/jointset/patellofemoral_l/patellar_flexion_l/accel	/jointset/knee_l/knee_flexion_l/accel	/jointset/knee_l/knee_adduction_l/accel	/jointset/knee_l/knee_rotation_l/accel	/jointset/ankle_l/ankle_angle_l/accel	/jointset/subtalar_l/subtalar_angle_l/accel	gamma_cid13_p0	gamma_cid13_p1	gamma_cid13_p2	gamma_cid13_p3	gamma_cid13_p4	gamma_cid13_p5	gamma_cid14_p0
0	-0.1585753463731936	0.05798313442252928	0.8979458633854858	0.3774920279260975	-0.2599027077230876	-0.2598731861331071	-0.0126506700172305	0.03223623128433515	0.03223623128433527	-0.1745329251994329	0.162030184549255	-0.04231376238535053	-0.01017951676218364	0	0	0	0	0	0	0	0	0	0	0	0	0	0.1377320391059245	-0.06668139856037841	-0.04377348362258966	-0.2664439492667349	0.2391952791822903	-0.0338842015071952	-0.08953143059159908	35.07926554054119	2.594666650939866	6.013509650032187	17.17063555695487	-583.0000223554412	-69.56366898678262	-38.68667756377683	-4.405696125286592	-2.685944586844514	-1.242398869257843	13.99670359023028	-1.326508296064838	3.241538687522784	-6.341256458461002	10.29004845370614	10.29004845370632	0.1337459983225226	0.2889281319281549	0.7977115384909975	-1.173009919557495	-2.051425848244022e-08	1.151881212619227e-07	8.763228917153965e-08	-1.112544547377006e-08	1.237230462871844e-07	2.162242565357467e-08	-1.215703979807105e-08
0.01	-0.1587879282454694	0.05785081577851992	0.8978851538736186	0.3781745453771901	-0.2599688245986591	-0.2597116041561322	-0.0129687325768506	0.03273930876013816	0.03273930876014187	-0.1745285255719869	0.1620414102465904	-0.0422760098802684	-0.01023843458627479	-0.04229846861561808	-0.02630628320634716	-0.01209520495685547	0.1358289597700819	-0.01314438443762687	0.0321773915111481	-0.06315389941229815	0.1001763780643757	0.1001763780643772	0.0009000414359719863	0.002232982867363012	0.007577423440766792	-0.01169859177458624	0.13262709107284	-0.07415085148638367	-0.04299298642420998	-0.2622884302557018	0.2336597181563039	-0.02364448510941025	-0.08500040420260024	33.67745462068189	-1.387723402352737	6.397948919789902	16.69582827103509	-584.321725775808	-77.23074931701714	-38.7014699129538	-4.109245878194372	-2.57935557328116	-1.186051951797977	13.27480539991748	-1.296579593915636	3.184978534284658	-6.233664805818599	9.815567349734669	9.815567349734819	0.07099768244639926	0.1886514438593827	0.7417960290766984	-1.155566087458911	-5.208129356021107e-08	1.341716015526666e-07	1.308804977207964e-07	1.761832903907434e-08	-4.009289382293703e-08	2.586002519499827e-08	-1.975806986587783e-08
0.02	-0.1594169595336026	0.05746015722529686	0.8977048981836029	0.3801951150718864	-0.260164020533867	-0.2592324204337701	-0.01390457575523516	0.03423097698997395	0.03423097698997416	-0.1745145466433716	0.1620745993885374	-0.0421616754843372	-0.01041179478432178	-0.0832898831710263	-0.05166798184273756	-0.02390923562968615	0.2676104487209811	-0.02581581192741319	0.0635203490772496	-0.1235561237527707	0.1977181508060061	0.1977181508060088	0.001914661520418317	0.004392688923486723	0.01531637816982035	-0.0228884747911612	0.1275221430397488	-0.08162030441239204	-0.04221248922586585	-0.2581329112446756	0.2281241571303113	-0.01340476871162929	-0.08046937781359965	32.36380767226731	-5.384953231654715	6.784074930865559	16.10121085429714	-584.2748594666541	-84.78519370604923	-38.74509264645822	-4.144285313244611	-2.497027672853159	-1.186164012452883	13.18720942639374	-1.231916906496727	3.074651898513467	-5.790921444095867	9.763127389157065	9.763127389157194	0.1566617280173913	0.274272769680295	0.8300177961483557	-1.071268167955236	-8.36483286379819e-08	1.531550818434106e-07	1.741287062700531e-07	4.636210355191873e-08	-2.039088339330584e-07	3.009762473642186e-08	-2.735909993368461e-08
0.03	-0.1604497034979412	0.05682046938494357	0.8974075674085952	0.3835140394285026	-0.2604833842509752	-0.2584439686702065	-0.01543044109742447	0.03668509442699684	0.03668509442699484	-0.1744897954968397	0.1621290374001429	-0.04196929988635113	-0.01069439419802517	-0.1230301354313321	-0.07612290268419349	-0.03553680643569147	0.3955070690513197	-0.03797369661490448	0.09403300916646282	-0.1811793005186332	0.2926593889956248	0.2926593889956256	0.003029378106091986	0.006476295390506368	0.02316134301607699	-0.03355026434492593	0.1213408511714279	-0.07673405493682528	-0.04139737842323653	-0.2531655703813267	0.2239961231136632	-0.01512684803352179	-0.07526944967422676	31.02627517077788	-4.502623956290392	6.757358635310411	15.95402641423927	-584.0531932838259	-82.08547490179208	-38.81602652836729	-3.854587731791338	-2.397712369650876	-1.148078117896981	12.49077235406658	-1.195266156841099	3.018999574566743	-5.682369167836205	9.292735396001524	9.292735396001177	0.08798744774142338	0.1725896521156921	0.7621218486134602	-1.051506108488317	-1.062078347440041e-07	1.696991515339236e-07	2.042528957622923e-07	6.79017646910922e-08	-3.225012986228249e-07	3.647364015249794e-08	-3.233173884062371e-08
0.04	-0.1618729884947593	0.05594063472020396	0.8969945560248826	0.388091906791964	-0.2609218351963514	-0.2573545050036624	-0.01751940888227423	0.04007524691833987	0.04007524691833962	-0.1744540750196747	0.1622037484898041	-0.04169839743595273	-0.01108118585914648	-0.16139808966634	-0.09969734672000069	-0.04704535737064406	0.5193990500901686	-0.0496332575810263	0.1237227296733348	-0.2361766122846859	0.384925161670733	0.384925161670731	0.004108527647729084	0.008447304533641356	0.03102174865229887	-0.04372692427473927	0.1151595593031086	-0.07184780546125591	-0.04058226762058456	-0.2481982295179875	0.2198680890970122	-0.01684892735541275	-0.07006952153484956	29.76869045014366	-3.632084229011575	6.730001217260628	15.69003401805309	-582.6069754913801	-79.27748978541817	-38.91253426774892	-3.869825708185023	-2.320932311723409	-1.162360038242335	12.3862815680958	-1.132252162222837	2.910063982045233	-5.265748444133904	9.228034286254994	9.228034286254928	0.1495483192100731	0.251753304903364	0.8331059541414124	-0.9742422431649562	-1.285816186031862e-07	1.861929240986587e-07	2.34106486923459e-07	8.929288741018999e-08	-4.401613205204192e-07	4.289374661753594e-08	-3.725018411537997e-08
0.05	-0.1636737183502838	0.05482944647190229	0.8964667537209451	0.3938898202283064	-0.2614741632924771	-0.2559723227409531	-0.02014479734158966	0.04437527463077282	0.04437527463077311	-0.1744074567795729	0.1622978342035113	-0.04134862208638131	-0.01156707124181039	-0.1985233003407312	-0.1223905425859215	-0.05851534604213392	0.6395250796183661	-0.06073768888966209	0.1525769093587593	-0.2884799342334807	0.4746318734271474	0.4746318734271444	0.005205049944543716	0.01034841182189178	0.03893367004493151	-0.05336016768657126	0.1086460830477174	-0.07038818187432158	-0.03973766534347138	-0.243780006122453	0.2156075132187145	-0.0150893606255071	-0.06466326407719106	28.6009429092502	-4.193579890087662	6.821551318078643	15.31203011877237	-581.245486405376	-79.35991524372	-39.03238513459416	-3.600189594667034	-2.221031139404253	-1.13944365843844	11.7269629763568	-1.085366760903029	2.852539219838076	-5.14945226850734	8.774721001796545	8.774721001796413	0.08824205883249304	0.1560438469587919	0.7702805343412125	-0.9444224515823119	-1.436669102714174e-07	2.017665470149746e-07	2.510611234312648e-07	1.056129350140967e-07	-5.164314866332595e-07	4.977815347347983e-08	-3.95053039688853e-08
